<svg width="24" height="25" viewBox="0 0 24 25" fill="none" xmlns="http://www.w3.org/2000/svg">
<path fill-rule="evenodd" clip-rule="evenodd" d="M22.907 4.22024C23.0315 4.1993 23.1614 4.20403 23.2896 4.2384L23.2895 4.23818C23.7947 4.37362 24.0977 4.94184 23.9714 5.48253L21.6723 15.1262C21.546 15.5601 21.1671 15.8849 20.7378 15.8849H8.31003L8.86555 18.2952H19.2223C19.7531 18.2952 20.1824 18.7555 20.1824 19.3248C20.1824 19.8941 19.7531 20.3543 19.2223 20.3543H8.13351C7.67862 20.3543 7.29973 20.0295 7.19908 19.5692L3.3095 2.55908H0.960093C0.429223 2.55908 0 2.09881 0 1.52954C0 0.960271 0.429223 0.5 0.960093 0.5H4.0416C4.49648 0.5 4.87538 0.824833 4.97602 1.2851L7.8562 13.8269H20.0304L21.7767 6.45023H13.8998C13.2827 6.45023 12.7823 5.94993 12.7823 5.33277C12.7823 4.71561 13.2827 4.2153 13.8998 4.2153L22.8012 4.21533C22.8369 4.21533 22.8722 4.21699 22.907 4.22024ZM9.92751 24.4999C10.7781 24.4999 11.4678 23.7593 11.4678 22.8472C11.4678 21.9351 10.7781 21.1944 9.92751 21.1944C9.07596 21.1944 8.38623 21.9351 8.38623 22.8472C8.38623 23.7593 9.07596 24.4999 9.92751 24.4999ZM19.4244 22.8472C19.4244 23.7593 18.7346 24.4999 17.8841 24.4999C17.0325 24.4999 16.3428 23.7593 16.3428 22.8472C16.3428 21.9351 17.0325 21.1944 17.8841 21.1944C18.7346 21.1944 19.4244 21.9351 19.4244 22.8472Z" fill="white"/>
</svg>
