<svg width="19" height="24" viewBox="0 0 19 24" fill="none" xmlns="http://www.w3.org/2000/svg">
<path d="M4.11685 23.9998H13.9143C16.1924 23.9998 18.031 22.1613 18.031 19.8832V12.309C18.031 10.3332 16.439 8.74121 14.4632 8.74121H12.5699C12.1036 8.74121 11.7466 9.09821 11.7466 9.56455C11.7466 10.0309 12.1036 10.3879 12.5699 10.3879H14.4364C15.5063 10.3879 16.3575 11.2391 16.3575 12.309V19.9109C16.3575 21.2831 15.2597 22.3809 13.8875 22.3809H4.11669C2.74446 22.3809 1.64667 21.2831 1.64667 19.9109V12.309C1.64667 11.2391 2.4979 10.3879 3.5678 10.3879H5.43425C5.90058 10.3879 6.25758 10.0309 6.25758 9.56455C6.25758 9.09821 5.90058 8.74121 5.43425 8.74121H3.5678C1.592 8.74121 0 10.3332 0 12.309V19.9109C0 22.1611 1.83857 23.9996 4.11669 23.9996L4.11685 23.9998Z" fill="#6B797A"/>
<path d="M4.80307 5.3923L8.0418 2.61985V13.5431C8.0418 14.0094 8.3988 14.3664 8.86514 14.3664C9.33148 14.3664 9.68848 14.0094 9.68848 13.5431V2.62095L12.9272 5.3934C13.0923 5.53063 13.2842 5.5853 13.4761 5.5853C13.6959 5.5853 13.9424 5.47595 14.1075 5.31085C14.4099 4.95386 14.3541 4.43285 14.025 4.1584L9.41404 0.205834C9.11171 -0.0686114 8.64537 -0.0686114 8.34414 0.205834L3.73317 4.1573C3.37618 4.45963 3.34939 4.98064 3.65063 5.30976C3.95296 5.63994 4.44608 5.69461 4.80308 5.3923H4.80307Z" fill="#6B797A"/>
</svg>
