<svg width="24" height="16" viewBox="0 0 24 16" fill="none" xmlns="http://www.w3.org/2000/svg">
<path fill-rule="evenodd" clip-rule="evenodd" d="M0 1.00049C0 0.448204 0.447715 0.000488281 1 0.000488281H23C23.5523 0.000488281 24 0.448204 24 1.00049C24 1.55277 23.5523 2.00049 23 2.00049H1C0.447716 2.00049 0 1.55277 0 1.00049ZM0 8.00049C0 7.4482 0.447715 7.00049 1 7.00049H13C13.5523 7.00049 14 7.4482 14 8.00049C14 8.55277 13.5523 9.00049 13 9.00049H1C0.447716 9.00049 0 8.55277 0 8.00049ZM1 14.0005C0.447715 14.0005 0 14.4482 0 15.0005C0 15.5528 0.447715 16.0005 1 16.0005H16C16.5523 16.0005 17 15.5528 17 15.0005C17 14.4482 16.5523 14.0005 16 14.0005H1Z" fill="white"/>
</svg>
