<svg width="2127" height="2109" viewBox="0 0 2127 2109" fill="none" xmlns="http://www.w3.org/2000/svg">
<path d="M786.889 1585.31C758.403 1638.23 727.886 1694 695.631 1752.76L752.231 1778.93C759.206 1763.65 766.672 1746.92 774.601 1729C811.518 1720.25 799.059 1688.85 855.789 1688.64C1074.46 1798.37 1077.3 1550.31 1278.03 1733.26C1193.62 1565.41 963.602 1474.39 838.141 1667.7L991.106 1622.99L933.068 1648.06L793.065 1686.96C827.457 1608.32 869.122 1512.4 917.965 1411.97C969.455 1409.96 975.382 1343.61 1069.52 1343.25C1439.32 1528.77 1444.04 1109.3 1783.54 1418.7C1640.78 1134.88 1251.8 981.031 1039.69 1307.87L1298.31 1232.26C1179.17 1283.8 1075.99 1307.38 951.995 1343.73C1202.27 972.042 1238.87 521.327 1129.39 319.94C1115.99 467.347 1040.26 606.628 1016.87 643.31C1106.65 392.892 1103.94 317.975 1104.12 297.7C1104.42 252.021 1026.44 192.704 1007.05 159.683C619.441 659.168 1188.72 683.108 953.49 1247.76C907.257 1134.65 845.501 1019.57 812.852 908.952L922.789 1154.96C1034.4 781.568 665.166 584.957 356.488 660.075C812.049 718.242 495.557 993.567 876.508 1155.15C936.687 1226.5 882.684 1289.21 923.525 1316.02C891.259 1386.4 852.327 1462.68 807.864 1546.11L746.604 1413.72L728.105 1353.26L793.131 1498.76C859.127 1277.96 620.307 1083.31 437.735 1127.73C707.11 1162.2 540.502 1403.38 765.75 1498.88C801.886 1541.67 771.128 1549.65 786.889 1585.31Z" fill="#81D494"/>
</svg>
