<svg width="112" height="47" viewBox="0 0 112 47" fill="none" xmlns="http://www.w3.org/2000/svg">
<path d="M33.4287 33.6909V13.695H40.4664C41.4159 13.695 42.3003 13.8532 43.1195 14.1698C43.9573 14.4676 44.6834 14.8959 45.2978 15.4544C45.9122 16.013 46.3963 16.6832 46.75 17.4652C47.1038 18.2285 47.2807 19.0756 47.2807 20.0066C47.2807 20.9561 47.1038 21.8218 46.75 22.6038C46.3963 23.3671 45.9122 24.0281 45.2978 24.5866C44.6834 25.1452 43.9573 25.5827 43.1195 25.8992C42.3003 26.1971 41.4159 26.346 40.4664 26.346H37.1989V33.6909H33.4287ZM40.5223 22.7714C41.509 22.7714 42.2538 22.4921 42.7564 21.9335C43.2591 21.375 43.5105 20.7327 43.5105 20.0066C43.5105 19.6528 43.4453 19.3084 43.315 18.9732C43.2033 18.6381 43.0171 18.3495 42.7564 18.1075C42.5144 17.8468 42.2072 17.642 41.8348 17.4931C41.4625 17.3442 41.025 17.2697 40.5223 17.2697H37.1989V22.7714H40.5223ZM49.6455 33.6909V13.695H53.304V33.6909H49.6455ZM64.7341 32.2387H64.5107C64.0825 32.76 63.5612 33.2068 62.9468 33.5792C62.351 33.9516 61.5783 34.1378 60.6288 34.1378C59.9213 34.1378 59.2511 34.0167 58.618 33.7747C58.0036 33.5513 57.4637 33.2348 56.9983 32.8252C56.5328 32.4156 56.1698 31.9222 55.9091 31.345C55.6484 30.7679 55.5181 30.1348 55.5181 29.446C55.5181 28.7385 55.6578 28.1055 55.937 27.5469C56.2163 26.9698 56.6073 26.4764 57.11 26.0668C57.6127 25.6572 58.1991 25.35 58.8694 25.1452C59.5583 24.9218 60.303 24.81 61.1036 24.81C61.9972 24.81 62.7327 24.8845 63.3098 25.0335C63.887 25.1638 64.3618 25.3034 64.7341 25.4524V25.0335C64.7341 24.3074 64.4455 23.7116 63.8684 23.2461C63.2912 22.762 62.5744 22.52 61.718 22.52C60.4519 22.52 59.3814 23.0506 58.5063 24.1119L55.8532 22.2966C57.3055 20.472 59.2883 19.5597 61.8018 19.5597C63.9242 19.5597 65.544 20.0624 66.6611 21.0678C67.7782 22.0546 68.3367 23.5254 68.3367 25.4803V33.6909H64.7341V32.2387ZM64.7341 28.1334C64.3059 27.9286 63.8591 27.7703 63.3936 27.6586C62.9468 27.5283 62.4534 27.4631 61.9135 27.4631C61.0384 27.4631 60.3588 27.6586 59.8748 28.0496C59.4093 28.422 59.1766 28.8874 59.1766 29.446C59.1766 30.0045 59.4 30.4514 59.8468 30.7865C60.3123 31.1216 60.8429 31.2892 61.4387 31.2892C61.9228 31.2892 62.3696 31.2054 62.7792 31.0378C63.1888 30.8516 63.5332 30.6189 63.8125 30.3396C64.1104 30.0418 64.3338 29.7066 64.4828 29.3343C64.6503 28.9433 64.7341 28.543 64.7341 28.1334ZM74.6806 21.7939H74.904C75.3322 21.105 75.9094 20.5651 76.6355 20.1741C77.3616 19.7645 78.1901 19.5597 79.121 19.5597C79.9775 19.5597 80.7315 19.6994 81.3831 19.9786C82.0348 20.2579 82.5654 20.6582 82.975 21.1795C83.4032 21.6822 83.7197 22.2966 83.9245 23.0227C84.1479 23.7302 84.2596 24.5215 84.2596 25.3965V33.6909H80.6012V25.8434C80.6012 24.8566 80.3778 24.1305 79.9309 23.665C79.5027 23.181 78.8697 22.9389 78.0319 22.9389C77.5292 22.9389 77.0823 23.0506 76.6914 23.274C76.319 23.4788 75.9932 23.7674 75.7139 24.1398C75.4532 24.4935 75.2484 24.9218 75.0995 25.4244C74.9692 25.9085 74.904 26.4298 74.904 26.9884V33.6909H71.2455V20.0066H74.6806V21.7939ZM88.0809 23.1344H85.6791V20.0066H88.0809V15.8175H91.7393V20.0066H95.0906V23.1344H91.7393V28.4406C91.7393 28.7571 91.7673 29.055 91.8231 29.3343C91.8976 29.5949 92.0279 29.8183 92.2141 30.0045C92.4748 30.3024 92.8471 30.4514 93.3312 30.4514C93.6477 30.4514 93.8991 30.4234 94.0852 30.3676C94.2714 30.2931 94.4483 30.2 94.6159 30.0883L95.6492 33.2999C95.2209 33.5047 94.7555 33.6537 94.2528 33.7468C93.7687 33.8585 93.2288 33.9143 92.633 33.9143C91.9441 33.9143 91.3204 33.8119 90.7619 33.6071C90.222 33.3837 89.7658 33.0858 89.3935 32.7135C88.5184 31.8756 88.0809 30.6841 88.0809 29.1388V23.1344ZM102.219 33.0207L96.466 20.0066H100.627L104.09 28.301H104.286L107.609 20.0066H111.686L103.113 39.7232H99.175L102.219 33.0207Z" fill="white"/>
<path opacity="0.3" fill-rule="evenodd" clip-rule="evenodd" d="M2.32908 39.7384C3.37551 35.6698 5.99701 31.3211 9.13808 28.5294C15.1167 29.124 20.4037 26.4348 23.334 24.4792C20.5698 26.6598 16.377 30.8582 15.0943 36.7287C11.1629 38.8508 6.83813 40.0125 2.32861 39.7381L2.32908 39.7384Z" fill="#88DD9B"/>
<path opacity="0.6" fill-rule="evenodd" clip-rule="evenodd" d="M2.3291 7.17482C2.3291 7.17482 9.17837 6.72845 15.0947 10.1842C16.3772 16.0546 20.5699 20.255 23.3345 22.4336C20.4056 20.4761 15.1186 17.7869 9.13857 18.3888C4.01789 13.8227 2.32957 7.17487 2.32957 7.17487L2.3291 7.17482Z" fill="#88DD9B"/>
<path fill-rule="evenodd" clip-rule="evenodd" d="M-1.84608e-07 23.4656C7.04878 17.6354 16.0439 17.9956 23.1438 23.4656C16.1465 29.2555 7.09983 28.9357 -1.84608e-07 23.4656Z" fill="#88DD9B"/>
<path fill-rule="evenodd" clip-rule="evenodd" d="M17.0792 46.8325C13.8228 38.6734 16.8047 29.5064 24.2319 24.8213C27.4882 32.9748 24.5118 42.1474 17.0792 46.8325Z" fill="#88DD9B"/>
<path fill-rule="evenodd" clip-rule="evenodd" d="M16.942 1.24465e-07C24.3748 4.68699 27.3496 13.8577 24.1004 22.0112C16.6676 17.3316 13.6876 8.15914 16.942 1.24465e-07Z" fill="#88DD9B"/>
</svg>
