<svg width="241" height="101" viewBox="0 0 241 101" fill="none" xmlns="http://www.w3.org/2000/svg">
<path d="M71.9322 72.3973V29.3704H87.0758C89.1189 29.3704 91.0219 29.7109 92.7847 30.392C94.5875 31.033 96.1499 31.9544 97.4719 33.1563C98.794 34.3581 99.8356 35.8004 100.597 37.483C101.358 39.1256 101.739 40.9484 101.739 42.9515C101.739 44.9947 101.358 46.8576 100.597 48.5402C99.8356 50.1828 98.794 51.605 97.4719 52.8069C96.1499 54.0087 94.5875 54.9502 92.7847 55.6312C91.0219 56.2722 89.1189 56.5927 87.0758 56.5927H80.0448V72.3973H71.9322ZM87.196 48.9008C89.3193 48.9008 90.9218 48.2998 92.0034 47.098C93.0851 45.8961 93.626 44.5139 93.626 42.9515C93.626 42.1903 93.4857 41.4492 93.2053 40.7281C92.9649 40.0069 92.5643 39.386 92.0034 38.8652C91.4826 38.3043 90.8216 37.8636 90.0203 37.5431C89.2191 37.2226 88.2776 37.0624 87.196 37.0624H80.0448V48.9008H87.196ZM106.827 72.3973V29.3704H114.7V72.3973H106.827ZM139.295 69.2725H138.814C137.892 70.3942 136.771 71.3557 135.449 72.157C134.167 72.9582 132.504 73.3588 130.461 73.3588C128.939 73.3588 127.496 73.0984 126.134 72.5776C124.812 72.0969 123.65 71.4158 122.649 70.5344C121.647 69.6531 120.866 68.5914 120.305 67.3495C119.744 66.1076 119.464 64.7454 119.464 63.2631C119.464 61.7408 119.764 60.3786 120.365 59.1768C120.966 57.9348 121.807 56.8732 122.889 55.9918C123.971 55.1104 125.233 54.4494 126.675 54.0087C128.157 53.528 129.76 53.2876 131.483 53.2876C133.406 53.2876 134.988 53.4479 136.23 53.7684C137.472 54.0488 138.493 54.3493 139.295 54.6698V53.7684C139.295 52.2059 138.674 50.9239 137.432 49.9224C136.19 48.8807 134.647 48.3599 132.805 48.3599C130.08 48.3599 127.777 49.5017 125.894 51.7853L120.185 47.8792C123.31 43.9531 127.576 41.99 132.985 41.99C137.552 41.99 141.037 43.0717 143.441 45.2351C145.845 47.3584 147.047 50.5233 147.047 54.7298V72.3973H139.295V69.2725ZM139.295 60.4387C138.373 59.998 137.412 59.6575 136.41 59.4171C135.449 59.1367 134.387 58.9965 133.225 58.9965C131.342 58.9965 129.88 59.4171 128.838 60.2584C127.837 61.0597 127.336 62.0613 127.336 63.2631C127.336 64.465 127.817 65.4265 128.778 66.1476C129.78 66.8687 130.922 67.2293 132.204 67.2293C133.245 67.2293 134.207 67.049 135.088 66.6885C135.97 66.2878 136.711 65.7871 137.312 65.1861C137.953 64.5451 138.433 63.824 138.754 63.0228C139.114 62.1814 139.295 61.3201 139.295 60.4387ZM160.697 46.7975H161.178C162.1 45.3152 163.341 44.1534 164.904 43.3121C166.466 42.4307 168.249 41.99 170.252 41.99C172.095 41.99 173.718 42.2905 175.12 42.8914C176.522 43.4924 177.664 44.3537 178.545 45.4754C179.467 46.5571 180.148 47.8792 180.588 49.4416C181.069 50.964 181.309 52.6666 181.309 54.5496V72.3973H173.437V55.5111C173.437 53.3878 172.956 51.8253 171.995 50.8238C171.073 49.7821 169.711 49.2613 167.909 49.2613C166.827 49.2613 165.865 49.5017 165.024 49.9825C164.223 50.4231 163.522 51.0441 162.921 51.8454C162.36 52.6065 161.919 53.528 161.599 54.6097C161.318 55.6513 161.178 56.773 161.178 57.9749V72.3973H153.306V42.9515H160.697V46.7975ZM189.532 49.682H184.364V42.9515H189.532V33.9375H197.404V42.9515H204.615V49.682H197.404V61.0998C197.404 61.7808 197.464 62.4218 197.584 63.0228C197.745 63.5836 198.025 64.0644 198.426 64.465C198.987 65.106 199.788 65.4265 200.829 65.4265C201.511 65.4265 202.051 65.3664 202.452 65.2462C202.853 65.086 203.233 64.8856 203.594 64.6453L205.817 71.556C204.896 71.9967 203.894 72.3172 202.813 72.5175C201.771 72.7579 200.609 72.8781 199.327 72.8781C197.845 72.8781 196.503 72.6577 195.301 72.2171C194.139 71.7363 193.158 71.0953 192.356 70.2941C190.473 68.4913 189.532 65.9273 189.532 62.6021V49.682ZM219.954 70.9551L207.575 42.9515H216.529L223.981 60.7993H224.401L231.552 42.9515H240.326L221.877 85.3775H213.404L219.954 70.9551Z" fill="#384647"/>
<path opacity="0.3" fill-rule="evenodd" clip-rule="evenodd" d="M5.01175 85.5086C7.26344 76.7539 12.9044 67.3965 19.6633 61.3894C32.528 62.6687 43.9044 56.8821 50.2098 52.6741C44.2618 57.3663 35.2399 66.4005 32.4797 79.0325C24.0202 83.5987 14.7142 86.0984 5.01074 85.508L5.01175 85.5086Z" fill="#88DD9B"/>
<path opacity="0.6" fill-rule="evenodd" clip-rule="evenodd" d="M5.01172 15.4386C5.01172 15.4386 19.7499 14.4781 32.4806 21.9141C35.2401 34.5461 44.2621 43.5845 50.2108 48.2725C43.9085 44.0605 32.532 38.2738 19.6642 39.569C8.64562 29.7435 5.01273 15.4387 5.01273 15.4387L5.01172 15.4386Z" fill="#88DD9B"/>
<path fill-rule="evenodd" clip-rule="evenodd" d="M-3.97237e-07 50.4927C15.1675 37.9474 34.5231 38.7223 49.8004 50.4927C34.7438 62.9514 15.2773 62.2631 -3.97237e-07 50.4927Z" fill="#88DD9B"/>
<path fill-rule="evenodd" clip-rule="evenodd" d="M36.7515 100.774C29.7446 83.217 36.161 63.4915 52.1427 53.4101C59.1496 70.9548 52.745 90.6924 36.7515 100.774Z" fill="#88DD9B"/>
<path fill-rule="evenodd" clip-rule="evenodd" d="M36.4555 -1.15671e-05C52.4493 10.0854 58.8505 29.819 51.8588 47.3637C35.865 37.2942 29.4528 17.5568 36.4555 -1.15671e-05Z" fill="#88DD9B"/>
</svg>
